# xmcd CD database file
#
# Track frame offsets:
#	150
#	11055
#	23328
#	36102
#	50966
#	63215
#	77422
#	89932
#	104229
#	116349
#	129999
#	142989
#	150683
#	163528
#	175999
#	191434
#	202383
#
# Disc length: 2857 seconds
#
# Revision: 0
# Processed by: cddbd v1.5.2PL0 Copyright (c) Steve Scherf et al.
# Submitted via: CDex 1.70beta2
#
DISCID=e90b2711
DTITLE=Various Artist - Country Roots - CD 8
DYEAR=2007
DGENRE=Country Classics
TTITLE0=Hank Williams - Lonesome Whistle
TTITLE1=The Carter Family - Let The Church Roll On
TTITLE2=Gene Autry - Roving Cowboy
TTITLE3=Red Foley - Steal Away
TTITLE4=The Carter Family - Grave On The Green Hillside
TTITLE5=Bill Haley - The Covered Wagon
TTITLE6=Roy Acuff - The Prodigal Son
TTITLE7=The Carter Family - On The Rock Where Moses Stood
TTITLE8=Roy Acuff - Blue Eyes Crying In The Rain
TTITLE9=Red Foley And Ernest Tubb - Hillbilly Fever No.2
TTITLE10=Bill Haley And His Comets - Thiteen Women
TTITLE11=Bob Wills - Cotton Eyed Joe
TTITLE12=Hank Williams - Pictures From Life's Other Side
TTITLE13=Gene Autry - Goodnight Irene
TTITLE14=Jimmie Rodgers - Ben Dewberry's Final Run
TTITLE15=Tex Ritter - Big Rock Candy Mountain
TTITLE16=Gene Autry - Buttons And Bows
EXTD=YEAR: 2007
EXTT0=
EXTT1=
EXTT2=
EXTT3=
EXTT4=
EXTT5=
EXTT6=
EXTT7=
EXTT8=
EXTT9=
EXTT10=
EXTT11=
EXTT12=
EXTT13=
EXTT14=
EXTT15=
EXTT16=
PLAYORDER=
